<?xml version="1.0" encoding="UTF-8"?>
<svg version="1.1" xmlns="http://www.w3.org/2000/svg" width="1024" height="1024">
<path d="M0 0 C337.92 0 675.84 0 1024 0 C1024 337.92 1024 675.84 1024 1024 C686.08 1024 348.16 1024 0 1024 C0 686.08 0 348.16 0 0 Z " fill="#FEFEFE" transform="translate(0,0)"/>
<path d="M0 0 C2.67381898 2.45924825 5.3055282 4.96003757 7.921875 7.48022461 C8.47504395 8.01147949 9.02821289 8.54273438 9.59814453 9.09008789 C16.92267527 16.16255563 23.63839989 23.45195325 29.921875 31.48022461 C31.16130859 32.99422852 31.16130859 32.99422852 32.42578125 34.53881836 C38.1795982 41.60951885 43.4114166 48.96882837 48.484375 56.54272461 C49.09240967 57.44748535 49.70044434 58.35224609 50.3269043 59.28442383 C50.89578369 60.14438965 51.46466309 61.00435547 52.05078125 61.89038086 C52.80983765 63.0371228 52.80983765 63.0371228 53.58422852 64.20703125 C54.97141463 66.56441214 55.97218827 68.91881128 56.921875 71.48022461 C30.58580943 80.48022461 30.58580943 80.48022461 23.921875 80.48022461 C22.61328125 79.09082031 22.61328125 79.09082031 21.484375 77.15600586 C21.06414063 76.45668945 20.64390625 75.75737305 20.2109375 75.03686523 C19.57285156 73.92601562 19.57285156 73.92601562 18.921875 72.79272461 C18.07067971 71.34956168 17.21656696 69.90811505 16.359375 68.46850586 C15.95203125 67.78353027 15.5446875 67.09855469 15.125 66.39282227 C13.57484827 63.92855914 11.80845293 61.69433343 9.921875 59.48022461 C4.93773624 60.05344914 1.26939125 62.37561886 -3.015625 64.79272461 C-11.67502379 69.52659919 -20.60027298 73.30285986 -29.765625 76.91772461 C-30.41578583 77.1742984 -31.06594666 77.43087219 -31.73580933 77.69522095 C-35.84211394 79.31074716 -39.95871228 80.89838543 -44.078125 82.48022461 C-44.92455566 82.81425293 -45.77098633 83.14828125 -46.64306641 83.49243164 C-49.61308291 84.65078547 -51.85879584 85.48022461 -55.078125 85.48022461 C-54.86196533 86.29773193 -54.64580566 87.11523926 -54.4230957 87.95751953 C-49.33525673 107.34806438 -45.05574396 126.63371895 -42.078125 146.48022461 C-41.95211914 147.31489258 -41.82611328 148.14956055 -41.69628906 149.00952148 C-41.03675964 153.49119026 -40.53902161 157.97314088 -40.078125 162.48022461 C-39.86229058 163.92968454 -39.64476617 165.37889356 -39.42578125 166.82788086 C-38.02879572 177.44195911 -38.02879572 177.44195911 -40.70703125 182.64428711 C-43.00395185 185.48048472 -45.43604955 187.96471565 -48.078125 190.48022461 C-49.63184095 192.19857272 -51.1738867 193.92755689 -52.703125 195.66772461 C-53.71246094 196.77180664 -53.71246094 196.77180664 -54.7421875 197.89819336 C-55.51304687 198.75026367 -56.28390625 199.60233398 -57.078125 200.48022461 C-57.76377281 201.22949219 -57.76377281 201.22949219 -58.46327209 201.99389648 C-61.73051271 205.6373633 -64.71011033 209.34611253 -67.5383234 213.34388924 C-74.9580613 223.59338345 -83.78808955 234.2278439 -96.70257568 236.91668701 C-111.06246665 239.04271722 -125.77877011 238.08411217 -140.21539307 237.33416748 C-146.18717498 237.05419689 -152.1621725 236.9338786 -158.13867188 236.79858398 C-169.79344182 236.51195199 -181.4341685 236.05344644 -193.078125 235.48022461 C-193.02483032 236.48452515 -192.97153564 237.48882568 -192.91662598 238.52355957 C-192.42719217 248.05224172 -192.06906533 257.57834202 -191.83463287 267.1167984 C-191.71001193 272.02049852 -191.54163861 276.91396513 -191.26757812 281.81176758 C-189.55150725 313.30022336 -189.55150725 313.30022336 -195.31283569 321.76263428 C-200.84391697 327.08381736 -207.18100922 330.33733522 -214.21942139 333.26599121 C-217.78512512 334.78052267 -220.73803276 336.66401184 -223.94140625 338.83178711 C-225.75275851 339.93130241 -227.56902811 341.02276645 -229.390625 342.10522461 C-230.39859131 342.70657227 -231.40655762 343.30791992 -232.44506836 343.92749023 C-243.4639748 350.41785877 -254.75674319 356.35260154 -266.20507812 362.04711914 C-268.57673566 363.23012643 -270.92981235 364.4415189 -273.28125 365.66381836 C-286.0940189 372.04558572 -304.72429329 377.48022461 -319.078125 377.48022461 C-318.748125 378.07834961 -318.418125 378.67647461 -318.078125 379.29272461 C-317.078125 381.48022461 -317.078125 381.48022461 -317.078125 384.48022461 C-320.38803127 385.61295413 -323.70148402 386.7349516 -327.015625 387.85522461 C-327.94181641 388.17233398 -328.86800781 388.48944336 -329.82226562 388.81616211 C-335.53360666 390.73998225 -341.1712427 392.28067313 -347.078125 393.48022461 C-347.738125 390.84022461 -348.398125 388.20022461 -349.078125 385.48022461 C-352.97470107 386.7198668 -356.86655599 387.97335324 -360.75402832 389.24127197 C-362.13853201 389.69281851 -363.5235448 390.14280696 -364.90905762 390.59124756 C-372.56315123 393.07980034 -379.8662798 395.6753304 -387.02099609 399.40551758 C-404.4192251 408.45259666 -424.8076284 406.02753416 -443.078125 400.48022461 C-444.30144531 400.14120117 -445.52476562 399.80217773 -446.78515625 399.45288086 C-455.28157847 396.72431555 -459.37504818 392.94361194 -464.078125 385.48022461 C-464.5304248 384.76850098 -464.98272461 384.05677734 -465.44873047 383.32348633 C-472.35233259 372.38061424 -478.57813178 361.18681741 -484.078125 349.48022461 C-484.39700684 348.81974121 -484.71588867 348.15925781 -485.04443359 347.47875977 C-498.32751306 319.8898103 -506.17213849 289.78259407 -510.078125 259.48022461 C-510.18108887 258.74819824 -510.28405273 258.01617187 -510.39013672 257.26196289 C-519.87741121 188.30311625 -502.63713849 114.74341322 -463.078125 57.48022461 C-462.62469727 56.8132959 -462.17126953 56.14636719 -461.70410156 55.45922852 C-455.76754085 46.74077245 -449.58203479 38.40300662 -442.6484375 30.45288086 C-440.27230159 27.70479663 -438.01534502 24.89430699 -435.765625 22.04272461 C-427.87849185 12.35403407 -418.71175418 3.42838179 -409.078125 -4.51977539 C-408.55621582 -4.9607959 -408.03430664 -5.40181641 -407.49658203 -5.85620117 C-363.89720477 -42.67477488 -312.1562952 -65.61654081 -256.078125 -75.51977539 C-255.0974707 -75.69911621 -254.11681641 -75.87845703 -253.10644531 -76.06323242 C-163.72405466 -91.74954601 -66.6083148 -60.28962223 0 0 Z " fill="#D3552E" transform="translate(719.078125,238.519775390625)"/>
<path d="M0 0 C-0.23952393 1.00184326 -0.23952393 1.00184326 -0.48388672 2.02392578 C-7.70733773 32.35228187 -14.26531206 62.83060509 -20.63659668 93.34817505 C-25.99180233 118.99821812 -31.84686761 144.52958178 -38 170 C-41.61345275 167.28202769 -44.3991616 164.4896234 -47.1875 160.9375 C-50.359125 156.97560299 -53.61972719 153.16628778 -57.0625 149.4375 C-61.62764598 144.47942283 -65.86734167 139.32166338 -70 134 C-70.69351563 134.69480469 -71.38703125 135.38960937 -72.1015625 136.10546875 C-74.08957419 138.09417995 -76.08546277 140.07461136 -78.0859375 142.05078125 C-84.96736199 148.80043809 -84.96736199 148.80043809 -91.4375 155.9375 C-94.74572658 159.84269979 -98.36513741 163.40280926 -102 167 C-107.41494868 172.34465194 -107.41494868 172.34465194 -112.5 178 C-119.57733845 186.33793309 -127.5994291 194.10767182 -135.9453125 201.1640625 C-138.74434366 203.66509795 -141.36258597 206.33043727 -144 209 C-147.86299037 212.90546711 -151.76738366 216.67130592 -155.953125 220.234375 C-158.45714849 222.3943342 -160.87997698 224.63487993 -163.3125 226.875 C-167.79797552 230.9656056 -172.40580544 234.84817843 -177.12890625 238.66015625 C-179.67793274 240.73752614 -182.18783007 242.8501843 -184.68725586 244.98632812 C-191.96355887 251.20348473 -199.41049836 257.1700022 -207 263 C-207.61182129 263.47018555 -208.22364258 263.94037109 -208.85400391 264.42480469 C-233.43152401 283.23848553 -259.22738061 300.47108719 -286 316 C-286.9187793 316.53415527 -287.83755859 317.06831055 -288.78417969 317.61865234 C-325.25342195 338.70685331 -363.21169077 356.19862177 -403 370 C-404.04365723 370.36432129 -405.08731445 370.72864258 -406.16259766 371.10400391 C-471.81866849 393.77668045 -554.69454561 408.9374747 -620.15234375 377.609375 C-628.97348447 373.18681474 -637.38581258 368.31591584 -645 362 C-645.99386719 361.18015625 -646.98773437 360.3603125 -648.01171875 359.515625 C-665.70765253 344.39606815 -675.99820296 323.09273061 -678 300 C-679.04494847 281.027014 -678.96431794 254.44647691 -668 238 C-668.03480469 239.02996094 -668.06960938 240.05992187 -668.10546875 241.12109375 C-668.77441445 269.76011926 -659.36968107 296.68929293 -640 318 C-621.31921391 337.52250756 -593.59137594 348.45033695 -566.70140076 349.28933716 C-562.75892241 349.37021041 -558.81820441 349.38466041 -554.875 349.375 C-554.03851929 349.37445618 -553.20203857 349.37391235 -552.34020996 349.37335205 C-537.58592424 349.32944676 -523.46357903 348.03596531 -509 345 C-507.41735352 344.67854004 -507.41735352 344.67854004 -505.80273438 344.35058594 C-447.52787212 332.34253844 -392.05532438 307.13396919 -341 277 C-339.33734835 276.03366699 -337.67458831 275.06752046 -336.01171875 274.1015625 C-301.94543197 254.14461969 -269.25764853 230.62885454 -240.11328125 203.93359375 C-238.14330794 202.13112279 -236.14377944 200.37241601 -234.125 198.625 C-224.37593544 190.10925083 -215.09090548 181.20965461 -206 172 C-202.87836135 168.86757849 -199.74117545 165.75109945 -196.6015625 162.63671875 C-194.94264302 160.98704484 -193.28379068 159.33730342 -191.625 157.6875 C-190.8 156.87087891 -189.975 156.05425781 -189.125 155.21289062 C-184.19968398 150.30711951 -179.52500183 145.27472817 -175 140 C-173.54554483 138.39231627 -172.08779105 136.78760285 -170.625 135.1875 C-166.80402862 130.94911157 -163.15752669 126.60120897 -159.5703125 122.1640625 C-157.64819539 119.7871519 -155.70034731 117.43324057 -153.7421875 115.0859375 C-144.00902651 103.39937577 -134.81060552 91.39539077 -126 79 C-127.29139512 76.15874841 -128.64407285 74.10939982 -130.85742188 71.91552734 C-131.71841492 71.05476089 -131.71841492 71.05476089 -132.59680176 70.17660522 C-133.21454468 69.56918488 -133.8322876 68.96176453 -134.46875 68.3359375 C-135.10486206 67.70265533 -135.74097412 67.06937317 -136.3963623 66.41690063 C-138.42625379 64.39818258 -140.46298851 62.38653081 -142.5 60.375 C-143.87155233 59.01348263 -145.2426514 57.65150851 -146.61328125 56.2890625 C-149.62867695 53.29331635 -152.6483954 50.30200744 -155.67199707 47.31454468 C-156.78471451 46.21310375 -157.89290646 45.10709354 -159 44 C-144.04271958 39.10614859 -128.93447225 34.84527509 -113.76473999 30.66373062 C-107.69134598 28.98774645 -101.62120789 27.29997454 -95.55078125 25.61328125 C-94.86578175 25.42304319 -94.18078224 25.23280514 -93.47502518 25.03680229 C-78.46299024 20.86629363 -63.47814947 16.60313369 -48.5 12.3125 C-46.78497787 11.82127655 -46.78497787 11.82127655 -45.03530884 11.32012939 C-42.81271639 10.68332135 -40.59019574 10.04626265 -38.36775208 9.40893555 C-36.25939099 8.80452314 -34.15082597 8.2008216 -32.04203796 7.59790039 C-26.96209533 6.14412819 -21.8874485 4.67509455 -16.8203125 3.17724609 C-15.84364624 2.89108932 -14.86697998 2.60493256 -13.86071777 2.31010437 C-12.01984857 1.77033831 -10.1806275 1.22490824 -8.34338379 0.67292786 C-7.13023499 0.31892159 -7.13023499 0.31892159 -5.89257812 -0.04223633 C-4.83206238 -0.35732903 -4.83206238 -0.35732903 -3.75012207 -0.67878723 C-2 -1 -2 -1 0 0 Z " fill="#D3572F" transform="translate(864,320)"/>
<path d="M0 0 C4.21135709 0.57323372 7.01294352 2.00701617 10.5625 4.3125 C11.49191406 4.90675781 12.42132812 5.50101563 13.37890625 6.11328125 C19.65299007 10.62949956 19.65299007 10.62949956 20.69555664 14.74707031 C21.03075361 18.32859748 20.56662566 20.73891639 19.59375 24.19140625 C19.26584473 25.3726709 18.93793945 26.55393555 18.60009766 27.77099609 C18.05554932 29.64779053 18.05554932 29.64779053 17.5 31.5625 C17.12646686 32.87311748 16.7532605 34.18382813 16.38037109 35.49462891 C2.89973329 82.54299086 -18.71017877 125.32433408 -51.8515625 161.6328125 C-53.75151841 163.72621846 -55.60001721 165.85195674 -57.4375 168 C-64.04789813 175.57441452 -71.28339788 182.56328518 -79 189 C-79.53834473 189.45213867 -80.07668945 189.90427734 -80.63134766 190.37011719 C-96.77195826 203.88178105 -113.71737508 215.56672502 -132 226 C-132.75974121 226.43554199 -133.51948242 226.87108398 -134.30224609 227.31982422 C-176.44239621 251.20444624 -224.02796938 262.6215297 -272.25317383 262.44604492 C-275.80023297 262.43752945 -279.34567591 262.46646336 -282.89257812 262.49804688 C-326.54345467 262.63021785 -368.25638222 250.73389877 -407 231 C-403.91486103 229.31124666 -400.95918027 228.36998784 -397.5480957 227.53198242 C-396.45628494 227.26218063 -395.36447418 226.99237885 -394.23957825 226.71440125 C-389.25046989 225.51194575 -384.2609703 224.31158738 -379.2668457 223.13012695 C-376.63606467 222.506331 -374.00929486 221.86859111 -371.38500977 221.21801758 C-367.59136007 220.28182927 -363.7912793 219.37782476 -359.98828125 218.48046875 C-358.8223494 218.18689987 -357.65641754 217.89333099 -356.45515442 217.59086609 C-349.28786827 215.94692316 -344.67733758 215.90486426 -338 219 C-336.61213372 219.51116358 -335.22061673 220.01262573 -333.82421875 220.5 C-333.1480249 220.74588867 -332.47183105 220.99177734 -331.77514648 221.24511719 C-318.90261646 225.89976142 -306.58667981 228.47735485 -293 230 C-293 221.75 -293 213.5 -293 205 C-289.90625 203.2675 -286.8125 201.535 -283.625 199.75 C-282.67189941 199.21213867 -281.71879883 198.67427734 -280.73681641 198.12011719 C-279.55611572 197.4651123 -279.55611572 197.4651123 -278.3515625 196.796875 C-277.56604004 196.35698242 -276.78051758 195.91708984 -275.97119141 195.46386719 C-271.76259804 193.39034822 -267.35610343 191.74244137 -263 190 C-263 202.54 -263 215.08 -263 228 C-226.22614702 212.85782524 -201.89131224 189.30067196 -183.47265625 154.20703125 C-181.40474915 150.44623248 -179.22454423 148.03324868 -175.75 145.4375 C-172.33534667 142.80631488 -169.03474525 140.18229277 -165.875 137.25 C-160.31274053 132.24496152 -154.30772393 127.8187252 -148.34765625 123.3046875 C-144.4475306 120.3497607 -140.58943704 117.3456933 -136.75 114.3125 C-131.18548884 109.91845773 -125.57497236 105.58907331 -119.9375 101.2890625 C-117.14913478 99.25369919 -117.14913478 99.25369919 -115.64453125 97.49511719 C-114.25 96.0234375 -114.25 96.0234375 -111 94 C-107.39807167 94.28754042 -104.31086462 95.61019664 -101 97 C-100.05237793 97.3805957 -99.10475586 97.76119141 -98.12841797 98.15332031 C-95.04136825 99.42865931 -91.98856634 100.76592727 -88.9375 102.125 C-87.85001465 102.60420898 -86.7625293 103.08341797 -85.64208984 103.57714844 C-78.25466743 106.87473513 -71.05874706 110.42197272 -64.03881836 114.44580078 C-62.3967318 115.36748943 -60.70171654 116.19370039 -59 117 C-55.6405472 115.8801824 -55.27659127 115.35513769 -53.3984375 112.52734375 C-52.91294434 111.8012793 -52.42745117 111.07521484 -51.92724609 110.32714844 C-51.41500488 109.53856445 -50.90276367 108.74998047 -50.375 107.9375 C-49.84084473 107.1218457 -49.30668945 106.30619141 -48.75634766 105.46582031 C-31.43043628 78.73797019 -15.98706066 46.7008846 -11.1875 14.9375 C-10.2787746 10.3039002 -7.30140118 7.78764885 -3.875 4.7265625 C-1.79358549 2.94640227 -1.79358549 2.94640227 0 0 Z " fill="#D3562E" transform="translate(789,508)"/>
<path d="M0 0 C33.99 0 67.98 0 103 0 C103.99 15.84 103.99 15.84 105 32 C105.66188795 38.21838931 106.3532288 44.38188768 107.25 50.5625 C107.40807129 51.69170364 107.40807129 51.69170364 107.56933594 52.84371948 C110.74129653 75.48776496 115.06380143 97.90998675 121 120 C119.84721558 120.37584229 119.84721558 120.37584229 118.67114258 120.75927734 C104.78595291 125.32180521 91.27951638 130.00207224 78.15966797 136.50244141 C72.82832031 139.1421526 67.48381334 141.59349027 61.9375 143.75 C60.9633313 144.14687012 60.9633313 144.14687012 59.96948242 144.55175781 C55.56560558 146.20609607 55.56560558 146.20609607 52.97387695 145.26171875 C50.82710206 143.88948219 49.72593038 142.65444551 48.265625 140.578125 C47.77803711 139.88968506 47.29044922 139.20124512 46.78808594 138.49194336 C46.0267334 137.3821814 46.0267334 137.3821814 45.25 136.25 C44.71922852 135.48502197 44.18845703 134.72004395 43.64160156 133.93188477 C39.00552685 127.16684245 34.84648564 120.24852442 31 113 C30.51370117 112.09096924 30.51370117 112.09096924 30.01757812 111.16357422 C11.40188857 76.11854071 3.738075 39.24978745 0 0 Z " fill="#FEFEFE" transform="translate(239,474)"/>
<path d="M0 0 C4.34071831 0.5926442 7.35177111 2.1895601 11.125 4.375 C22.54662888 10.72950407 34.86010533 15.22621093 47 20 C47.98323242 20.38704102 48.96646484 20.77408203 49.97949219 21.17285156 C54.97844181 23.13603044 59.98466103 25.0790924 65 27 C63.98881157 32.26590775 62.90161572 37.50405697 61.66796875 42.72265625 C53.64631169 76.83974105 50.18393931 111.05697106 48 146 C14.01 146 -19.98 146 -55 146 C-52.64495631 120.09451937 -52.64495631 120.09451937 -50.4375 109.8125 C-50.18210449 108.6061792 -49.92670898 107.3998584 -49.66357422 106.15698242 C-45.3491866 86.69663687 -38.69618969 67.92321379 -30 50 C-29.6714502 49.31405762 -29.34290039 48.62811523 -29.00439453 47.92138672 C-20.93842052 31.13990932 -11.88492662 14.42001418 0 0 Z " fill="#FEFEFE" transform="translate(294,297)"/>
<path d="M0 0 C40.59 0 81.18 0 123 0 C123 33 123 66 123 100 C113.76 100.33 104.52 100.66 95 101 C89.57677537 101.47168992 84.25836914 101.97758146 78.875 102.6875 C77.51814938 102.85857387 76.16129712 103.02963464 74.80444336 103.20068359 C55.75632309 105.66214639 36.81048072 109.1421577 18 113 C14.99822307 106.01839256 12.78432835 99.06931673 11 91.6875 C10.74436279 90.63699463 10.48872559 89.58648926 10.2253418 88.50415039 C9.46697098 85.33969967 8.72796062 82.17157479 8 79 C7.79842285 78.12408203 7.5968457 77.24816406 7.38916016 76.34570312 C1.83695293 51.56757939 0 25.34030255 0 0 Z " fill="#FEFEFE" transform="translate(373,474)"/>
<path d="M0 0 C11.13513085 35.56057917 16 72.8426467 16 110 C-24.92 110 -65.84 110 -108 110 C-108 78.32 -108 46.64 -108 14 C-90.675 13.01 -90.675 13.01 -73 12 C-53.29663897 9.97514867 -34.43752732 6.90021186 -15.1472168 2.64208984 C-14.35903564 2.46819733 -13.57085449 2.29430481 -12.75878906 2.11514282 C-11.27726049 1.78625602 -9.7964957 1.4539029 -8.31665039 1.11752319 C-5.47124599 0.48070992 -2.92723827 0 0 0 Z " fill="#FEFEFE" transform="translate(634,333)"/>
<path d="M0 0 C0.58974609 0.12528076 1.17949219 0.25056152 1.78710938 0.37963867 C36.73950919 7.73926831 71.45341534 11.6192107 107 15 C107 46.35 107 77.7 107 110 C66.41 110 25.82 110 -16 110 C-16 73.93864787 -11.86797851 34.3558567 0 0 Z " fill="#FEFEFE" transform="translate(389,333)"/>
<path d="M0 0 C6.76501187 1.12750198 6.76501187 1.12750198 10.25 2.93359375 C11.01618652 3.32981934 11.78237305 3.72604492 12.57177734 4.13427734 C13.77374756 4.77937256 13.77374756 4.77937256 15 5.4375 C15.83869629 5.88561035 16.67739258 6.3337207 17.54150391 6.79541016 C29.92261128 13.54680935 40.43113166 21.78495377 50.53320312 31.58447266 C51.86475386 32.86948117 53.22020198 34.12961123 54.578125 35.38671875 C73.06187158 52.946278 90.73492812 79.33699281 98 104 C98 105.32 98 106.64 98 108 C65.75529893 115.31348546 33.17987278 121 0 121 C0 81.07 0 41.14 0 0 Z " fill="#FEFEFE" transform="translate(526,196)"/>
<path d="M0 0 C0 39.6 0 79.2 0 120 C-6.15304211 120 -11.98854394 119.95733554 -18.05859375 119.3359375 C-18.79332916 119.26351334 -19.52806458 119.19108917 -20.2850647 119.11647034 C-22.67008298 118.87708775 -25.05383692 118.62750428 -27.4375 118.375 C-28.2601535 118.28896515 -29.08280701 118.2029303 -29.9303894 118.11428833 C-42.38080805 116.79594521 -54.7272195 115.0780988 -67.0625 112.9375 C-68.13526688 112.75208649 -68.13526688 112.75208649 -69.22970581 112.56292725 C-78.22181572 110.99411706 -87.12759291 109.14861564 -96 107 C-95.44126628 102.7998638 -94.47758889 99.40204759 -92.6640625 95.578125 C-91.94186523 94.05336548 -91.94186523 94.05336548 -91.20507812 92.49780273 C-90.42293945 90.89014038 -90.42293945 90.89014038 -89.625 89.25 C-89.08552734 88.13761963 -88.54605469 87.02523926 -87.99023438 85.87915039 C-73.69860211 56.8591971 -38.09643854 0 0 0 Z " fill="#FEFEFE" transform="translate(496,197)"/>
<path d="M0 0 C16.66064133 3.58192006 32.25916243 9.62975666 47.6875 16.8125 C48.49550049 17.18528076 49.30350098 17.55806152 50.13598633 17.94213867 C50.87872803 18.29767822 51.62146973 18.65321777 52.38671875 19.01953125 C53.03858154 19.32995361 53.69044434 19.64037598 54.36206055 19.96020508 C56 21 56 21 58 24 C45.7312928 38.54069002 31.55181168 51.09420739 16 62 C15.41105957 62.41910645 14.82211914 62.83821289 14.21533203 63.27001953 C-3.89301634 76.0914811 -23.59744925 86.36494495 -44 95 C-45.37937744 95.59337158 -45.37937744 95.59337158 -46.78662109 96.19873047 C-47.68590332 96.57529785 -48.58518555 96.95186523 -49.51171875 97.33984375 C-50.32471436 97.68265381 -51.13770996 98.02546387 -51.9753418 98.37866211 C-54 99 -54 99 -56 98 C-55.36835937 97.28199219 -54.73671875 96.56398438 -54.0859375 95.82421875 C-29.27619918 67.27228206 -12.60448988 35.55609002 0 0 Z " fill="#FEFDFC" transform="translate(654,627)"/>
<path d="M0 0 C-0.44988281 0.41507813 -0.89976562 0.83015625 -1.36328125 1.2578125 C-16.15692707 15.42888004 -27.85711516 33.30862408 -38 51 C-38.61125732 52.06009277 -38.61125732 52.06009277 -39.23486328 53.14160156 C-44.41037891 62.15444641 -49.26495807 71.19912553 -53.31274414 80.78271484 C-55.51624429 85.7718848 -55.51624429 85.7718848 -57.74633789 86.82348633 C-60.86840558 87.06801617 -62.94057355 86.16028829 -65.84765625 85.0078125 C-67.00233398 84.5538208 -68.15701172 84.0998291 -69.34667969 83.63208008 C-70.58555649 83.13038634 -71.82415839 82.62801331 -73.0625 82.125 C-74.3231465 81.62174917 -75.58388925 81.11873937 -76.84472656 80.6159668 C-87.09814066 76.49538743 -97.11216205 71.93174183 -107 67 C-107 64 -107 64 -105.85546875 62.4921875 C-100.51173732 57.31114579 -94.81898318 52.63596246 -89 48 C-87.90213368 47.11093642 -86.80448347 46.22160594 -85.70703125 45.33203125 C-20.78664326 -6.92888109 -20.78664326 -6.92888109 0 0 Z " fill="#FEFDFC" transform="translate(425,207)"/>
<path d="M0 0 C8.05015625 1.9402382 15.45377562 4.67262228 23 8.0625 C24.63630371 8.79376099 24.63630371 8.79376099 26.30566406 9.53979492 C53.20919621 21.6975917 77.74407697 37.22546568 99.28125 57.4921875 C101.26565599 59.32263095 103.24216253 61.01330427 105.34375 62.6953125 C106.2203125 63.45585937 107.096875 64.21640625 108 65 C108 65.66 108 66.32 108 67 C92.28247447 75.94750824 75.84028796 82.52541642 59 89 C56.69098792 86.11478178 55.07082816 83.2724694 53.5390625 79.9140625 C53.07419434 78.91157471 52.60932617 77.90908691 52.13037109 76.8762207 C51.63359863 75.80331787 51.13682617 74.73041504 50.625 73.625 C38.20111099 47.30783247 22.81230562 23.08807073 1.80078125 2.828125 C0 1 0 1 0 0 Z " fill="#FEFDFC" transform="translate(598,206)"/>
<path d="M0 0 C0.33 0 0.66 0 1 0 C1.33 33 1.66 66 2 100 C2.66 100.33 3.32 100.66 4 101 C2.02 102.32 0.04 103.64 -2 105 C-2.66 104.67 -3.32 104.34 -4 104 C-3.67 103.67 -3.34 103.34 -3 103 C-9.27 102.67 -15.54 102.34 -22 102 C-22 101.67 -22 101.34 -22 101 C-14.74 101 -7.48 101 0 101 C0 67.67 0 34.34 0 0 Z " fill="#B80700" transform="translate(496,473)"/>
<path d="M0 0 C0.66 0.33 1.32 0.66 2 1 C0.78115393 2.61202222 -0.45056485 4.21431577 -1.6875 5.8125 C-2.37199219 6.70582031 -3.05648437 7.59914063 -3.76171875 8.51953125 C-6.03520594 11.03901531 -8.08216208 12.32224319 -11 14 C-12.47991657 15.350779 -13.91948728 16.74726651 -15.3125 18.1875 C-16.00988281 18.90292969 -16.70726562 19.61835937 -17.42578125 20.35546875 C-17.94527344 20.89816406 -18.46476563 21.44085937 -19 22 C-19.66 21.67 -20.32 21.34 -21 21 C-20.5968457 20.60208252 -20.19369141 20.20416504 -19.77832031 19.79418945 C-17.93285523 17.96965943 -16.09140987 16.1411223 -14.25 14.3125 C-13.61578125 13.68666016 -12.9815625 13.06082031 -12.328125 12.41601562 C-9.64504791 9.74691289 -7.10156991 7.12696238 -4.734375 4.16796875 C-3 2 -3 2 0 0 Z " fill="#C93719" transform="translate(588,692)"/>
<path d="M0 0 C1 2 1 2 0.5 4.125 C-1.66498166 8.27454818 -4.60804792 11.77604554 -8 15 C-8.66 15 -9.32 15 -10 15 C-10 15.66 -10 16.32 -10 17 C-11.98 17.99 -11.98 17.99 -14 19 C-12.46473873 13.91809087 -9.32630342 10.57522114 -5.875 6.6875 C-5.31167969 6.04232422 -4.74835938 5.39714844 -4.16796875 4.73242188 C-2.78458492 3.14973699 -1.39308955 1.57414859 0 0 Z " fill="#CD4122" transform="translate(279,266)"/>
<path d="M0 0 C0 12.54 0 25.08 0 38 C-0.33 38 -0.66 38 -1 38 C-1.33 26.78 -1.66 15.56 -2 4 C-2.66 3.67 -3.32 3.34 -4 3 C-4.33 3.66 -4.66 4.32 -5 5 C-5.66 4.34 -6.32 3.68 -7 3 C-1.125 0 -1.125 0 0 0 Z " fill="#C01403" transform="translate(526,698)"/>
<path d="M0 0 C0.33 0 0.66 0 1 0 C1 9.24 1 18.48 1 28 C-3.50446338 21.99404883 -2.46066855 16.63810037 -1.54296875 9.390625 C-1.06674767 6.25236232 -0.55642857 3.1249426 0 0 Z " fill="#D5633C" transform="translate(209,453)"/>
<path d="M0 0 C-1.98 1.32 -3.96 2.64 -6 4 C-6.66 3.67 -7.32 3.34 -8 3 C-7.67 2.67 -7.34 2.34 -7 2 C-13.27 1.67 -19.54 1.34 -26 1 C-26 0.67 -26 0.34 -26 0 C-22.41713181 -0.19720979 -18.83369943 -0.38107522 -15.25 -0.5625 C-14.23421875 -0.61857422 -13.2184375 -0.67464844 -12.171875 -0.73242188 C-11.1921875 -0.78076172 -10.2125 -0.82910156 -9.203125 -0.87890625 C-8.30239258 -0.9260376 -7.40166016 -0.97316895 -6.47363281 -1.02172852 C-4.12542592 -1.00110175 -2.23793298 -0.67823071 0 0 Z " fill="#C31B06" transform="translate(500,574)"/>
<path d="M0 0 C0.66 0.33 1.32 0.66 2 1 C-3.0940919 7.70459519 -3.0940919 7.70459519 -6.875 8.9375 C-7.57625 8.958125 -8.2775 8.97875 -9 9 C-6.31941902 5.42589203 -3.57410797 2.68058098 0 0 Z " fill="#C8371C" transform="translate(611,535)"/>
<path d="M0 0 C0.33 0 0.66 0 1 0 C0.67 2.31 0.34 4.62 0 7 C-0.66 7 -1.32 7 -2 7 C-2.28875 7.94875 -2.5775 8.8975 -2.875 9.875 C-4 13 -4 13 -6 15 C-5.39644592 11.14974121 -4.23227397 8.13898841 -2.4375 4.6875 C-1.98246094 3.80449219 -1.52742187 2.92148437 -1.05859375 2.01171875 C-0.53458984 1.01591797 -0.53458984 1.01591797 0 0 Z " fill="#C52E12" transform="translate(237,329)"/>
<path d="M0 0 C0.99 0.33 1.98 0.66 3 1 C2.34 1.66 1.68 2.32 1 3 C0.67 3.99 0.34 4.98 0 6 C-3.0625 7.1875 -3.0625 7.1875 -6 8 C-2.25 2.25 -2.25 2.25 0 0 Z " fill="#FAECE7" transform="translate(604,718)"/>
<path d="M0 0 C0.33 0.66 0.66 1.32 1 2 C-0.21484375 4.3828125 -0.21484375 4.3828125 -1.9375 7.125 C-2.50339844 8.03507812 -3.06929688 8.94515625 -3.65234375 9.8828125 C-4.09707031 10.58148438 -4.54179687 11.28015625 -5 12 C-6.47769949 9.04460102 -5.56171816 6.94874776 -4.74609375 3.84375 C-4 2 -4 2 -1.875 0.5 C-1.25625 0.335 -0.6375 0.17 0 0 Z " fill="#C83318" transform="translate(276,322)"/>
<path d="M0 0 C0.6875 1.75 0.6875 1.75 1 4 C-0.25 6.25 -0.25 6.25 -2 8 C-2.99 8 -3.98 8 -5 8 C-3.62845496 5.04590299 -2.01136276 2.55991624 0 0 Z " fill="#CB3F1F" transform="translate(734,405)"/>
<path d="M0 0 C0.66 0.33 1.32 0.66 2 1 C1.01 2.485 1.01 2.485 0 4 C-0.99 4 -1.98 4 -3 4 C-3.33 4.99 -3.66 5.98 -4 7 C-5.32 6.67 -6.64 6.34 -8 6 C-5.36 4.02 -2.72 2.04 0 0 Z " fill="#C8361A" transform="translate(671,687)"/>
<path d="M0 0 C-0.66 0 -1.32 0 -2 0 C-2 0.66 -2 1.32 -2 2 C-5.13349732 3.04449911 -5.98968256 2.93423645 -9 2 C-9.33 2.66 -9.66 3.32 -10 4 C-10.66 3.34 -11.32 2.68 -12 2 C-10.56656 1.46809459 -9.12804633 0.94984742 -7.6875 0.4375 C-6.48673828 0.00244141 -6.48673828 0.00244141 -5.26171875 -0.44140625 C-3 -1 -3 -1 0 0 Z " fill="#C6341A" transform="translate(717,362)"/>
<path d="M0 0 C2.64 0.66 5.28 1.32 8 2 C7.67 2.99 7.34 3.98 7 5 C6.01 5 5.02 5 4 5 C1.8125 2.5 1.8125 2.5 0 0 Z " fill="#FBEEE9" transform="translate(598,206)"/>
<path d="M0 0 C0 0.66 0 1.32 0 2 C2.31 2.33 4.62 2.66 7 3 C7 3.33 7 3.66 7 4 C5.39504433 3.88557539 3.79101881 3.75805306 2.1875 3.625 C1.29417969 3.55539062 0.40085937 3.48578125 -0.51953125 3.4140625 C-3 3 -3 3 -6 1 C-3.92446352 0.4465236 -2.15634036 0 0 0 Z " fill="#C72E12" transform="translate(452,761)"/>
<path d="M0 0 C3.63 0.33 7.26 0.66 11 1 C11 1.33 11 1.66 11 2 C4.565 2.495 4.565 2.495 -2 3 C-1.34 2.01 -0.68 1.02 0 0 Z " fill="#D56139" transform="translate(441,577)"/>
<path d="M0 0 C-1.98 0.33 -3.96 0.66 -6 1 C-6 1.66 -6 2.32 -6 3 C-8.31 3 -10.62 3 -13 3 C-9.54666565 -0.45333435 -4.63654999 -1.85462 0 0 Z " fill="#C62C12" transform="translate(782,344)"/>
<path d="M0 0 C1 2 1 2 0.546875 3.91015625 C0.28390625 4.62042969 0.0209375 5.33070313 -0.25 6.0625 C-0.62898438 7.13177734 -0.62898438 7.13177734 -1.015625 8.22265625 C-2 10 -2 10 -5 11 C-3.77472971 6.94718288 -2.30119506 3.55639236 0 0 Z " fill="#C63116" transform="translate(385,260)"/>
<path d="M0 0 C0.66 0.33 1.32 0.66 2 1 C-1.32307692 5.8 -1.32307692 5.8 -4.75 6.8125 C-5.4925 6.874375 -6.235 6.93625 -7 7 C-4.66666667 4.66666667 -2.33333333 2.33333333 0 0 Z " fill="#C83319" transform="translate(326,221)"/>
<path d="M0 0 C0.66 0.33 1.32 0.66 2 1 C0 4 0 4 -3 6 C-4.32 5.67 -5.64 5.34 -7 5 C-4.69 3.35 -2.38 1.7 0 0 Z " fill="#C8371D" transform="translate(345,208)"/>
<path d="M0 0 C3.3125 -0.1875 3.3125 -0.1875 7 0 C7.99 0.99 8.98 1.98 10 3 C6.7 3 3.4 3 0 3 C0 2.01 0 1.02 0 0 Z " fill="#D56440" transform="translate(527,160)"/>
<path d="M0 0 C3.3 0 6.6 0 10 0 C7 3 7 3 4.4375 3.375 C3.633125 3.25125 2.82875 3.1275 2 3 C1.34 2.01 0.68 1.02 0 0 Z " fill="#D55F37" transform="translate(483,767)"/>
<path d="M0 0 C0.99 0.66 1.98 1.32 3 2 C0.69 4.31 -1.62 6.62 -4 9 C-4.66 8.67 -5.32 8.34 -6 8 C-4.73046875 6.50260417 -3.4609375 5.00520833 -2.19140625 3.5078125 C-0.9121848 1.99405921 -0.9121848 1.99405921 0 0 Z " fill="#D56038" transform="translate(652,498)"/>
<path d="M0 0 C1.875 0.1875 1.875 0.1875 4 1 C5.52164099 3.89111788 6 5.71823412 6 9 C4.99406757 7.8803014 3.9954151 6.7540588 3 5.625 C2.443125 4.99851563 1.88625 4.37203125 1.3125 3.7265625 C0 2 0 2 0 0 Z " fill="#C83416" transform="translate(589,240)"/>
<path d="M0 0 C-0.99 0.495 -0.99 0.495 -2 1 C-2 1.66 -2 2.32 -2 3 C-4.97 3 -7.94 3 -11 3 C-10.67 2.34 -10.34 1.68 -10 1 C-6.6322481 0.06451336 -3.4815554 -0.09947301 0 0 Z " fill="#C93015" transform="translate(402,585)"/>
<path d="M0 0 C1.8871875 0.061875 1.8871875 0.061875 3.8125 0.125 C2.8225 0.455 1.8325 0.785 0.8125 1.125 C0.8125 1.785 0.8125 2.445 0.8125 3.125 C-1.8275 2.795 -4.4675 2.465 -7.1875 2.125 C-4.09861478 0.06574319 -3.47814073 -0.1140374 0 0 Z " fill="#C83119" transform="translate(432.1875,578.875)"/>
<path d="M0 0 C0.66 0.33 1.32 0.66 2 1 C-1.465 3.97 -1.465 3.97 -5 7 C-5.66 6.67 -6.32 6.34 -7 6 C-3.375 1.125 -3.375 1.125 0 0 Z " fill="#C83116" transform="translate(677,564)"/>
<path d="M0 0 C0.66 0.33 1.32 0.66 2 1 C2 3.64 2 6.28 2 9 C1.01 8.34 0.02 7.68 -1 7 C-1.25 3.9375 -1.25 3.9375 -1 1 C-0.67 0.67 -0.34 0.34 0 0 Z " fill="#D6653E" transform="translate(344,499)"/>
<path d="M0 0 C5.75 -0.125 5.75 -0.125 8 1 C8 1.66 8 2.32 8 3 C8.66 3.33 9.32 3.66 10 4 C5.78087253 3.5205537 3.20336822 2.83374881 0 0 Z " fill="#C83217" transform="translate(324,310)"/>
<path d="M0 0 C0.33 1.32 0.66 2.64 1 4 C0.34 4 -0.32 4 -1 4 C-1 4.66 -1 5.32 -1 6 C-2.98 6.99 -2.98 6.99 -5 8 C-3.8141763 4.62496331 -2.72426311 2.35277269 0 0 Z " fill="#C7371B" transform="translate(270,277)"/>
</svg>
